<svg width="84" height="84" viewBox="0 0 84 84" fill="none" xmlns="http://www.w3.org/2000/svg">
<circle cx="42" cy="42" r="42" fill="#C1E4FF"/>
<mask id="path-2-outside-1_728_5796" maskUnits="userSpaceOnUse" x="15" y="18" width="55" height="48" fill="black">
<rect fill="white" x="15" y="18" width="55" height="48"/>
<path d="M68.5351 56.193C68.6584 56.193 68.7766 56.144 68.8638 56.0568C68.951 55.9696 69 55.8514 69 55.7281V19.4649C69 19.3416 68.951 19.2234 68.8638 19.1362C68.7766 19.049 68.6584 19 68.5351 19H31.3421C31.2634 19.0024 31.1866 19.0248 31.1189 19.0651L16.2418 27.4335C16.1698 27.4729 16.1095 27.5306 16.067 27.6008C16.0245 27.6711 16.0014 27.7513 16 27.8333V64.0965C16 64.2198 16.049 64.338 16.1362 64.4252C16.2234 64.5124 16.3416 64.5614 16.4649 64.5614C16.5448 64.5612 16.6232 64.5403 16.6927 64.501L31.463 56.193H34.1316V60.3772C34.1324 60.6649 34.2222 60.9454 34.3886 61.1801C34.5551 61.4148 34.7901 61.5923 35.0614 61.6882V63.1667C35.0614 63.29 35.1104 63.4082 35.1976 63.4954C35.2848 63.5826 35.403 63.6316 35.5263 63.6316H36.9211C37.0444 63.6316 37.1626 63.5826 37.2498 63.4954C37.337 63.4082 37.386 63.29 37.386 63.1667V61.7719H50.4035V63.1667C50.4035 63.29 50.4525 63.4082 50.5397 63.4954C50.6269 63.5826 50.7451 63.6316 50.8684 63.6316H52.2632C52.3865 63.6316 52.5047 63.5826 52.5919 63.4954C52.6791 63.4082 52.7281 63.29 52.7281 63.1667V61.6882C52.9994 61.5923 53.2344 61.4148 53.4008 61.1801C53.5673 60.9454 53.6571 60.6649 53.6579 60.3772V56.193H60.1667V62.9156L57.5864 64.6404C57.504 64.6958 57.4414 64.7762 57.408 64.8697C57.3745 64.9632 57.3719 65.065 57.4005 65.1601C57.429 65.2553 57.4874 65.3387 57.5668 65.3983C57.6463 65.4579 57.7428 65.4905 57.8421 65.4912H65.2807C65.38 65.4905 65.4765 65.4579 65.556 65.3983C65.6355 65.3387 65.6938 65.2553 65.7224 65.1601C65.7509 65.065 65.7483 64.9632 65.7149 64.8697C65.6814 64.7762 65.6189 64.6958 65.5364 64.6404L62.9561 62.9156V56.193H68.5351ZM26.693 57.8109L21.114 60.949V43.91L26.693 40.7207V57.8109ZM30.8772 55.4584L27.6228 57.2855V39.9211C27.6231 39.8391 27.6018 39.7586 27.561 39.6875C27.5202 39.6165 27.4613 39.5575 27.3904 39.5166C27.3197 39.4758 27.2395 39.4543 27.1579 39.4543C27.0763 39.4543 26.9961 39.4758 26.9254 39.5166L20.4167 43.2359C20.3457 43.2768 20.2869 43.3358 20.246 43.4068C20.2052 43.4779 20.1839 43.5584 20.1842 43.6404V61.4697L16.9298 63.3015V28.103L30.8772 20.2599V55.4584ZM36.4561 62.7018H35.9912V61.7719H36.4561V62.7018ZM51.7982 62.7018H51.3333V61.7719H51.7982V62.7018ZM52.7281 60.3772C52.7281 60.5005 52.6791 60.6187 52.5919 60.7059C52.5047 60.7931 52.3865 60.8421 52.2632 60.8421H35.5263C35.403 60.8421 35.2848 60.7931 35.1976 60.7059C35.1104 60.6187 35.0614 60.5005 35.0614 60.3772V55.7281C35.0614 55.4815 35.1594 55.245 35.3337 55.0706C35.5081 54.8962 35.7446 54.7982 35.9912 54.7982C36.2378 54.7982 36.4743 54.8962 36.6487 55.0706C36.8231 55.245 36.9211 55.4815 36.9211 55.7281V58.5175C36.9211 58.6408 36.97 58.7591 37.0572 58.8463C37.1444 58.9335 37.2627 58.9825 37.386 58.9825H50.4035C50.5268 58.9825 50.6451 58.9335 50.7323 58.8463C50.8194 58.7591 50.8684 58.6408 50.8684 58.5175V55.7281C50.8684 55.4815 50.9664 55.245 51.1408 55.0706C51.3151 54.8962 51.5516 54.7982 51.7982 54.7982C52.0449 54.7982 52.2814 54.8962 52.4557 55.0706C52.6301 55.245 52.7281 55.4815 52.7281 55.7281V60.3772ZM44.3596 54.3333V51.0789H50.8684C50.9917 51.0789 51.11 51.1279 51.1972 51.2151C51.2844 51.3023 51.3333 51.4206 51.3333 51.5439V53.9335C50.9352 54.0363 50.5823 54.2682 50.3299 54.5929C50.0775 54.9176 49.9399 55.3168 49.9386 55.7281V56.193H44.8246C44.4805 56.195 44.1493 56.3242 43.8947 56.5556C43.6401 56.3242 43.309 56.195 42.9649 56.193H37.8509V55.7281C37.8495 55.3168 37.7119 54.9176 37.4596 54.5929C37.2072 54.2682 36.8543 54.0363 36.4561 53.9335V51.5439C36.4561 51.4206 36.5051 51.3023 36.5923 51.2151C36.6795 51.1279 36.7978 51.0789 36.9211 51.0789H43.4298V54.3333H44.3596ZM49.9386 57.1228V58.0526H44.3596V57.5877C44.3596 57.4644 44.4086 57.3462 44.4958 57.259C44.583 57.1718 44.7013 57.1228 44.8246 57.1228H49.9386ZM43.4298 57.5877V58.0526H37.8509V57.1228H42.9649C43.0882 57.1228 43.2065 57.1718 43.2937 57.259C43.3808 57.3462 43.4298 57.4644 43.4298 57.5877ZM53.5928 55.2632C53.5093 54.9434 53.3421 54.6516 53.1084 54.4179C52.8747 54.1842 52.583 54.017 52.2632 53.9335V51.5439C52.2632 51.174 52.1162 50.8192 51.8547 50.5576C51.5931 50.2961 51.2383 50.1491 50.8684 50.1491H36.9211C36.5511 50.1491 36.1964 50.2961 35.9348 50.5576C35.6733 50.8192 35.5263 51.174 35.5263 51.5439V53.9335C35.2065 54.017 34.9148 54.1842 34.6811 54.4179C34.4473 54.6516 34.2801 54.9434 34.1967 55.2632H31.807V19.9298H68.0702V55.2632H62.9561V47.8246H64.3509V51.0789H65.2807V47.8246H66.2105C66.2883 47.8244 66.3648 47.8048 66.4331 47.7674C66.5013 47.7301 66.559 47.6762 66.6011 47.6107C66.6469 47.5429 66.6741 47.4643 66.6798 47.3826C66.6855 47.301 66.6696 47.2193 66.6336 47.1458L63.3792 40.1721C63.3392 40.0949 63.2784 40.0304 63.2036 39.986C63.1288 39.9417 63.0431 39.9191 62.9561 39.9211H60.1667C60.0736 39.921 59.9826 39.9488 59.9055 40.0011C59.8284 40.0533 59.7687 40.1274 59.7343 40.2139L56.9448 47.1876C56.9167 47.2582 56.9063 47.3346 56.9146 47.4101C56.9228 47.4856 56.9494 47.5579 56.9921 47.6208C57.0347 47.6836 57.0922 47.735 57.1593 47.7706C57.2264 47.8061 57.3012 47.8246 57.3772 47.8246H60.1667V55.2632H53.5928ZM63.7465 64.5614H59.3763L60.8873 63.5525C60.9512 63.5104 61.0038 63.4532 61.0403 63.3858C61.0768 63.3185 61.0961 63.2432 61.0965 63.1667V47.8246H62.0263V63.1667C62.0267 63.2432 62.046 63.3185 62.0825 63.3858C62.119 63.4532 62.1716 63.5104 62.2355 63.5525L63.7465 64.5614ZM58.0653 46.8947L60.4828 40.8509H62.6586L65.4806 46.8947H58.0653Z"/>
</mask>
<path d="M68.5351 56.193C68.6584 56.193 68.7766 56.144 68.8638 56.0568C68.951 55.9696 69 55.8514 69 55.7281V19.4649C69 19.3416 68.951 19.2234 68.8638 19.1362C68.7766 19.049 68.6584 19 68.5351 19H31.3421C31.2634 19.0024 31.1866 19.0248 31.1189 19.0651L16.2418 27.4335C16.1698 27.4729 16.1095 27.5306 16.067 27.6008C16.0245 27.6711 16.0014 27.7513 16 27.8333V64.0965C16 64.2198 16.049 64.338 16.1362 64.4252C16.2234 64.5124 16.3416 64.5614 16.4649 64.5614C16.5448 64.5612 16.6232 64.5403 16.6927 64.501L31.463 56.193H34.1316V60.3772C34.1324 60.6649 34.2222 60.9454 34.3886 61.1801C34.5551 61.4148 34.7901 61.5923 35.0614 61.6882V63.1667C35.0614 63.29 35.1104 63.4082 35.1976 63.4954C35.2848 63.5826 35.403 63.6316 35.5263 63.6316H36.9211C37.0444 63.6316 37.1626 63.5826 37.2498 63.4954C37.337 63.4082 37.386 63.29 37.386 63.1667V61.7719H50.4035V63.1667C50.4035 63.29 50.4525 63.4082 50.5397 63.4954C50.6269 63.5826 50.7451 63.6316 50.8684 63.6316H52.2632C52.3865 63.6316 52.5047 63.5826 52.5919 63.4954C52.6791 63.4082 52.7281 63.29 52.7281 63.1667V61.6882C52.9994 61.5923 53.2344 61.4148 53.4008 61.1801C53.5673 60.9454 53.6571 60.6649 53.6579 60.3772V56.193H60.1667V62.9156L57.5864 64.6404C57.504 64.6958 57.4414 64.7762 57.408 64.8697C57.3745 64.9632 57.3719 65.065 57.4005 65.1601C57.429 65.2553 57.4874 65.3387 57.5668 65.3983C57.6463 65.4579 57.7428 65.4905 57.8421 65.4912H65.2807C65.38 65.4905 65.4765 65.4579 65.556 65.3983C65.6355 65.3387 65.6938 65.2553 65.7224 65.1601C65.7509 65.065 65.7483 64.9632 65.7149 64.8697C65.6814 64.7762 65.6189 64.6958 65.5364 64.6404L62.9561 62.9156V56.193H68.5351ZM26.693 57.8109L21.114 60.949V43.91L26.693 40.7207V57.8109ZM30.8772 55.4584L27.6228 57.2855V39.9211C27.6231 39.8391 27.6018 39.7586 27.561 39.6875C27.5202 39.6165 27.4613 39.5575 27.3904 39.5166C27.3197 39.4758 27.2395 39.4543 27.1579 39.4543C27.0763 39.4543 26.9961 39.4758 26.9254 39.5166L20.4167 43.2359C20.3457 43.2768 20.2869 43.3358 20.246 43.4068C20.2052 43.4779 20.1839 43.5584 20.1842 43.6404V61.4697L16.9298 63.3015V28.103L30.8772 20.2599V55.4584ZM36.4561 62.7018H35.9912V61.7719H36.4561V62.7018ZM51.7982 62.7018H51.3333V61.7719H51.7982V62.7018ZM52.7281 60.3772C52.7281 60.5005 52.6791 60.6187 52.5919 60.7059C52.5047 60.7931 52.3865 60.8421 52.2632 60.8421H35.5263C35.403 60.8421 35.2848 60.7931 35.1976 60.7059C35.1104 60.6187 35.0614 60.5005 35.0614 60.3772V55.7281C35.0614 55.4815 35.1594 55.245 35.3337 55.0706C35.5081 54.8962 35.7446 54.7982 35.9912 54.7982C36.2378 54.7982 36.4743 54.8962 36.6487 55.0706C36.8231 55.245 36.9211 55.4815 36.9211 55.7281V58.5175C36.9211 58.6408 36.97 58.7591 37.0572 58.8463C37.1444 58.9335 37.2627 58.9825 37.386 58.9825H50.4035C50.5268 58.9825 50.6451 58.9335 50.7323 58.8463C50.8194 58.7591 50.8684 58.6408 50.8684 58.5175V55.7281C50.8684 55.4815 50.9664 55.245 51.1408 55.0706C51.3151 54.8962 51.5516 54.7982 51.7982 54.7982C52.0449 54.7982 52.2814 54.8962 52.4557 55.0706C52.6301 55.245 52.7281 55.4815 52.7281 55.7281V60.3772ZM44.3596 54.3333V51.0789H50.8684C50.9917 51.0789 51.11 51.1279 51.1972 51.2151C51.2844 51.3023 51.3333 51.4206 51.3333 51.5439V53.9335C50.9352 54.0363 50.5823 54.2682 50.3299 54.5929C50.0775 54.9176 49.9399 55.3168 49.9386 55.7281V56.193H44.8246C44.4805 56.195 44.1493 56.3242 43.8947 56.5556C43.6401 56.3242 43.309 56.195 42.9649 56.193H37.8509V55.7281C37.8495 55.3168 37.7119 54.9176 37.4596 54.5929C37.2072 54.2682 36.8543 54.0363 36.4561 53.9335V51.5439C36.4561 51.4206 36.5051 51.3023 36.5923 51.2151C36.6795 51.1279 36.7978 51.0789 36.9211 51.0789H43.4298V54.3333H44.3596ZM49.9386 57.1228V58.0526H44.3596V57.5877C44.3596 57.4644 44.4086 57.3462 44.4958 57.259C44.583 57.1718 44.7013 57.1228 44.8246 57.1228H49.9386ZM43.4298 57.5877V58.0526H37.8509V57.1228H42.9649C43.0882 57.1228 43.2065 57.1718 43.2937 57.259C43.3808 57.3462 43.4298 57.4644 43.4298 57.5877ZM53.5928 55.2632C53.5093 54.9434 53.3421 54.6516 53.1084 54.4179C52.8747 54.1842 52.583 54.017 52.2632 53.9335V51.5439C52.2632 51.174 52.1162 50.8192 51.8547 50.5576C51.5931 50.2961 51.2383 50.1491 50.8684 50.1491H36.9211C36.5511 50.1491 36.1964 50.2961 35.9348 50.5576C35.6733 50.8192 35.5263 51.174 35.5263 51.5439V53.9335C35.2065 54.017 34.9148 54.1842 34.6811 54.4179C34.4473 54.6516 34.2801 54.9434 34.1967 55.2632H31.807V19.9298H68.0702V55.2632H62.9561V47.8246H64.3509V51.0789H65.2807V47.8246H66.2105C66.2883 47.8244 66.3648 47.8048 66.4331 47.7674C66.5013 47.7301 66.559 47.6762 66.6011 47.6107C66.6469 47.5429 66.6741 47.4643 66.6798 47.3826C66.6855 47.301 66.6696 47.2193 66.6336 47.1458L63.3792 40.1721C63.3392 40.0949 63.2784 40.0304 63.2036 39.986C63.1288 39.9417 63.0431 39.9191 62.9561 39.9211H60.1667C60.0736 39.921 59.9826 39.9488 59.9055 40.0011C59.8284 40.0533 59.7687 40.1274 59.7343 40.2139L56.9448 47.1876C56.9167 47.2582 56.9063 47.3346 56.9146 47.4101C56.9228 47.4856 56.9494 47.5579 56.9921 47.6208C57.0347 47.6836 57.0922 47.735 57.1593 47.7706C57.2264 47.8061 57.3012 47.8246 57.3772 47.8246H60.1667V55.2632H53.5928ZM63.7465 64.5614H59.3763L60.8873 63.5525C60.9512 63.5104 61.0038 63.4532 61.0403 63.3858C61.0768 63.3185 61.0961 63.2432 61.0965 63.1667V47.8246H62.0263V63.1667C62.0267 63.2432 62.046 63.3185 62.0825 63.3858C62.119 63.4532 62.1716 63.5104 62.2355 63.5525L63.7465 64.5614ZM58.0653 46.8947L60.4828 40.8509H62.6586L65.4806 46.8947H58.0653Z" fill="black"/>
<path d="M68.5351 56.193C68.6584 56.193 68.7766 56.144 68.8638 56.0568C68.951 55.9696 69 55.8514 69 55.7281V19.4649C69 19.3416 68.951 19.2234 68.8638 19.1362C68.7766 19.049 68.6584 19 68.5351 19H31.3421C31.2634 19.0024 31.1866 19.0248 31.1189 19.0651L16.2418 27.4335C16.1698 27.4729 16.1095 27.5306 16.067 27.6008C16.0245 27.6711 16.0014 27.7513 16 27.8333V64.0965C16 64.2198 16.049 64.338 16.1362 64.4252C16.2234 64.5124 16.3416 64.5614 16.4649 64.5614C16.5448 64.5612 16.6232 64.5403 16.6927 64.501L31.463 56.193H34.1316V60.3772C34.1324 60.6649 34.2222 60.9454 34.3886 61.1801C34.5551 61.4148 34.7901 61.5923 35.0614 61.6882V63.1667C35.0614 63.29 35.1104 63.4082 35.1976 63.4954C35.2848 63.5826 35.403 63.6316 35.5263 63.6316H36.9211C37.0444 63.6316 37.1626 63.5826 37.2498 63.4954C37.337 63.4082 37.386 63.29 37.386 63.1667V61.7719H50.4035V63.1667C50.4035 63.29 50.4525 63.4082 50.5397 63.4954C50.6269 63.5826 50.7451 63.6316 50.8684 63.6316H52.2632C52.3865 63.6316 52.5047 63.5826 52.5919 63.4954C52.6791 63.4082 52.7281 63.29 52.7281 63.1667V61.6882C52.9994 61.5923 53.2344 61.4148 53.4008 61.1801C53.5673 60.9454 53.6571 60.6649 53.6579 60.3772V56.193H60.1667V62.9156L57.5864 64.6404C57.504 64.6958 57.4414 64.7762 57.408 64.8697C57.3745 64.9632 57.3719 65.065 57.4005 65.1601C57.429 65.2553 57.4874 65.3387 57.5668 65.3983C57.6463 65.4579 57.7428 65.4905 57.8421 65.4912H65.2807C65.38 65.4905 65.4765 65.4579 65.556 65.3983C65.6355 65.3387 65.6938 65.2553 65.7224 65.1601C65.7509 65.065 65.7483 64.9632 65.7149 64.8697C65.6814 64.7762 65.6189 64.6958 65.5364 64.6404L62.9561 62.9156V56.193H68.5351ZM26.693 57.8109L21.114 60.949V43.91L26.693 40.7207V57.8109ZM30.8772 55.4584L27.6228 57.2855V39.9211C27.6231 39.8391 27.6018 39.7586 27.561 39.6875C27.5202 39.6165 27.4613 39.5575 27.3904 39.5166C27.3197 39.4758 27.2395 39.4543 27.1579 39.4543C27.0763 39.4543 26.9961 39.4758 26.9254 39.5166L20.4167 43.2359C20.3457 43.2768 20.2869 43.3358 20.246 43.4068C20.2052 43.4779 20.1839 43.5584 20.1842 43.6404V61.4697L16.9298 63.3015V28.103L30.8772 20.2599V55.4584ZM36.4561 62.7018H35.9912V61.7719H36.4561V62.7018ZM51.7982 62.7018H51.3333V61.7719H51.7982V62.7018ZM52.7281 60.3772C52.7281 60.5005 52.6791 60.6187 52.5919 60.7059C52.5047 60.7931 52.3865 60.8421 52.2632 60.8421H35.5263C35.403 60.8421 35.2848 60.7931 35.1976 60.7059C35.1104 60.6187 35.0614 60.5005 35.0614 60.3772V55.7281C35.0614 55.4815 35.1594 55.245 35.3337 55.0706C35.5081 54.8962 35.7446 54.7982 35.9912 54.7982C36.2378 54.7982 36.4743 54.8962 36.6487 55.0706C36.8231 55.245 36.9211 55.4815 36.9211 55.7281V58.5175C36.9211 58.6408 36.97 58.7591 37.0572 58.8463C37.1444 58.9335 37.2627 58.9825 37.386 58.9825H50.4035C50.5268 58.9825 50.6451 58.9335 50.7323 58.8463C50.8194 58.7591 50.8684 58.6408 50.8684 58.5175V55.7281C50.8684 55.4815 50.9664 55.245 51.1408 55.0706C51.3151 54.8962 51.5516 54.7982 51.7982 54.7982C52.0449 54.7982 52.2814 54.8962 52.4557 55.0706C52.6301 55.245 52.7281 55.4815 52.7281 55.7281V60.3772ZM44.3596 54.3333V51.0789H50.8684C50.9917 51.0789 51.11 51.1279 51.1972 51.2151C51.2844 51.3023 51.3333 51.4206 51.3333 51.5439V53.9335C50.9352 54.0363 50.5823 54.2682 50.3299 54.5929C50.0775 54.9176 49.9399 55.3168 49.9386 55.7281V56.193H44.8246C44.4805 56.195 44.1493 56.3242 43.8947 56.5556C43.6401 56.3242 43.309 56.195 42.9649 56.193H37.8509V55.7281C37.8495 55.3168 37.7119 54.9176 37.4596 54.5929C37.2072 54.2682 36.8543 54.0363 36.4561 53.9335V51.5439C36.4561 51.4206 36.5051 51.3023 36.5923 51.2151C36.6795 51.1279 36.7978 51.0789 36.9211 51.0789H43.4298V54.3333H44.3596ZM49.9386 57.1228V58.0526H44.3596V57.5877C44.3596 57.4644 44.4086 57.3462 44.4958 57.259C44.583 57.1718 44.7013 57.1228 44.8246 57.1228H49.9386ZM43.4298 57.5877V58.0526H37.8509V57.1228H42.9649C43.0882 57.1228 43.2065 57.1718 43.2937 57.259C43.3808 57.3462 43.4298 57.4644 43.4298 57.5877ZM53.5928 55.2632C53.5093 54.9434 53.3421 54.6516 53.1084 54.4179C52.8747 54.1842 52.583 54.017 52.2632 53.9335V51.5439C52.2632 51.174 52.1162 50.8192 51.8547 50.5576C51.5931 50.2961 51.2383 50.1491 50.8684 50.1491H36.9211C36.5511 50.1491 36.1964 50.2961 35.9348 50.5576C35.6733 50.8192 35.5263 51.174 35.5263 51.5439V53.9335C35.2065 54.017 34.9148 54.1842 34.6811 54.4179C34.4473 54.6516 34.2801 54.9434 34.1967 55.2632H31.807V19.9298H68.0702V55.2632H62.9561V47.8246H64.3509V51.0789H65.2807V47.8246H66.2105C66.2883 47.8244 66.3648 47.8048 66.4331 47.7674C66.5013 47.7301 66.559 47.6762 66.6011 47.6107C66.6469 47.5429 66.6741 47.4643 66.6798 47.3826C66.6855 47.301 66.6696 47.2193 66.6336 47.1458L63.3792 40.1721C63.3392 40.0949 63.2784 40.0304 63.2036 39.986C63.1288 39.9417 63.0431 39.9191 62.9561 39.9211H60.1667C60.0736 39.921 59.9826 39.9488 59.9055 40.0011C59.8284 40.0533 59.7687 40.1274 59.7343 40.2139L56.9448 47.1876C56.9167 47.2582 56.9063 47.3346 56.9146 47.4101C56.9228 47.4856 56.9494 47.5579 56.9921 47.6208C57.0347 47.6836 57.0922 47.735 57.1593 47.7706C57.2264 47.8061 57.3012 47.8246 57.3772 47.8246H60.1667V55.2632H53.5928ZM63.7465 64.5614H59.3763L60.8873 63.5525C60.9512 63.5104 61.0038 63.4532 61.0403 63.3858C61.0768 63.3185 61.0961 63.2432 61.0965 63.1667V47.8246H62.0263V63.1667C62.0267 63.2432 62.046 63.3185 62.0825 63.3858C62.119 63.4532 62.1716 63.5104 62.2355 63.5525L63.7465 64.5614ZM58.0653 46.8947L60.4828 40.8509H62.6586L65.4806 46.8947H58.0653Z" stroke="black" stroke-width="0.2" mask="url(#path-2-outside-1_728_5796)"/>
<path d="M22.9737 52.0088C23.4872 52.0088 23.9035 51.5925 23.9035 51.079C23.9035 50.5655 23.4872 50.1492 22.9737 50.1492C22.4602 50.1492 22.0439 50.5655 22.0439 51.079C22.0439 51.5925 22.4602 52.0088 22.9737 52.0088Z" fill="black"/>
<path d="M42.9649 30.2079H48.5439C48.6804 30.2079 48.8114 30.1537 48.908 30.0571C49.0045 29.9606 49.0588 29.8296 49.0588 29.693V24.1141C49.0588 23.9775 49.0045 23.8465 48.908 23.75C48.8114 23.6534 48.6804 23.5992 48.5439 23.5992H42.9649C42.8283 23.5992 42.6974 23.6534 42.6008 23.75C42.5042 23.8465 42.45 23.9775 42.45 24.1141V29.693C42.45 29.8296 42.5042 29.9606 42.6008 30.0571C42.6974 30.1537 42.8283 30.2079 42.9649 30.2079ZM43.4798 24.629H48.0289V29.1781H43.4798V24.629Z" fill="black" stroke="black" stroke-width="0.1"/>
<path d="M42.9649 37.6464H48.5439C48.6804 37.6464 48.8114 37.5922 48.908 37.4956C49.0045 37.399 49.0588 37.2681 49.0588 37.1315V31.5526C49.0588 31.416 49.0045 31.285 48.908 31.1885C48.8114 31.0919 48.6804 31.0376 48.5439 31.0376H42.9649C42.8283 31.0376 42.6974 31.0919 42.6008 31.1885C42.5042 31.285 42.45 31.416 42.45 31.5526V37.1315C42.45 37.2681 42.5042 37.399 42.6008 37.4956C42.6974 37.5922 42.8283 37.6464 42.9649 37.6464ZM43.4798 32.0675H48.0289V36.6166H43.4798V32.0675Z" fill="black" stroke="black" stroke-width="0.1"/>
<path d="M50.4035 37.6464H55.9825C56.119 37.6464 56.25 37.5922 56.3466 37.4956C56.4431 37.399 56.4974 37.2681 56.4974 37.1315V31.5526C56.4974 31.416 56.4431 31.285 56.3466 31.1885C56.25 31.0919 56.119 31.0376 55.9825 31.0376H50.4035C50.2669 31.0376 50.136 31.0919 50.0394 31.1885C49.9428 31.285 49.8886 31.416 49.8886 31.5526V37.1315C49.8886 37.2681 49.9428 37.399 50.0394 37.4956C50.136 37.5922 50.2669 37.6464 50.4035 37.6464ZM50.9184 32.0675H55.4675V36.6166H50.9184V32.0675Z" fill="black" stroke="black" stroke-width="0.1"/>
<path d="M50.4035 30.2079H55.9825C56.119 30.2079 56.25 30.1537 56.3466 30.0571C56.4431 29.9606 56.4974 29.8296 56.4974 29.693V24.1141C56.4974 23.9775 56.4431 23.8465 56.3466 23.75C56.25 23.6534 56.119 23.5992 55.9825 23.5992H50.4035C50.2669 23.5992 50.136 23.6534 50.0394 23.75C49.9428 23.8465 49.8886 23.9775 49.8886 24.1141V29.693C49.8886 29.8296 49.9428 29.9606 50.0394 30.0571C50.136 30.1537 50.2669 30.2079 50.4035 30.2079ZM50.9184 24.629H55.4675V29.1781H50.9184V24.629Z" fill="black" stroke="black" stroke-width="0.1"/>
<path d="M58.357 38.9913V22.2545C58.357 22.1179 58.3028 21.9869 58.2062 21.8904C58.1097 21.7938 57.9787 21.7396 57.8421 21.7396H41.1053C40.9687 21.7396 40.8378 21.7938 40.7412 21.8904C40.6446 21.9869 40.5904 22.1179 40.5904 22.2545V38.9913C40.5904 39.1279 40.6446 39.2588 40.7412 39.3554C40.8378 39.452 40.9687 39.5062 41.1053 39.5062H57.8421C57.9787 39.5062 58.1097 39.452 58.2062 39.3554C58.3028 39.2588 58.357 39.1279 58.357 38.9913ZM57.3272 38.4764H41.6202V22.7694H57.3272V38.4764Z" fill="black" stroke="black" stroke-width="0.1"/>
</svg>
