<svg width="84" height="84" viewBox="0 0 84 84" fill="none" xmlns="http://www.w3.org/2000/svg">
<circle cx="42" cy="42" r="42" fill="#C1E4FF"/>
<path d="M55.5792 50.2449C58.9531 46.8082 61.0377 42.1016 61.0377 36.9164C61.0376 26.4191 52.4974 17.8789 42 17.8789C31.5026 17.8789 22.9624 26.4191 22.9624 36.9165C22.9624 42.1016 25.047 46.8082 28.4209 50.245L23.3337 59.0563C23.1994 59.289 23.2138 59.5788 23.3706 59.797C23.5274 60.0151 23.7977 60.1214 24.0609 60.0681L30.9075 58.686L33.1342 65.3064C33.2198 65.5611 33.4468 65.742 33.7141 65.7687C33.7369 65.771 33.7597 65.7722 33.7822 65.7722C34.0245 65.7722 34.2512 65.6433 34.3741 65.4304L39.9116 55.839C40.5977 55.9142 41.2942 55.954 42 55.954C42.7058 55.954 43.4022 55.9142 44.0883 55.839L49.8272 65.7793C49.9502 65.9922 50.1767 66.1211 50.4191 66.1211C50.4417 66.1211 50.4646 66.12 50.4873 66.1177C50.7546 66.091 50.9816 65.9101 51.0672 65.6554L53.2938 59.035L60.1404 60.4169C60.4036 60.4701 60.6739 60.364 60.8308 60.1458C60.9875 59.9276 61.002 59.6377 60.8677 59.4051L55.5792 50.2449ZM33.9473 63.4353L32.0112 57.6788C31.9014 57.3522 31.5656 57.1588 31.228 57.2267L25.2749 58.4283L29.4416 51.2115C31.9516 53.4192 35.0451 54.9775 38.458 55.6224L33.9473 63.4353ZM24.3296 36.9165C24.3296 27.1729 32.2565 19.2461 42 19.2461C51.7435 19.2461 59.6704 27.1729 59.6704 36.9165C59.6704 46.6601 51.7435 54.5869 42 54.5869C32.2565 54.5869 24.3296 46.66 24.3296 36.9165ZM52.9732 57.5756C52.6356 57.5074 52.2999 57.7013 52.19 58.0277L50.2541 63.7842L45.5418 55.6223C48.9547 54.9774 52.0484 53.4191 54.5584 51.2114L58.9266 58.7771L52.9732 57.5756ZM42 22.7753C34.2025 22.7753 27.8588 29.1189 27.8588 36.9165C27.8588 44.7141 34.2025 51.0576 42 51.0576C49.7975 51.0576 56.1412 44.714 56.1412 36.9164C56.1412 29.1188 49.7975 22.7753 42 22.7753ZM42 49.6904C34.9563 49.6904 29.226 43.9601 29.226 36.9164C29.226 29.8728 34.9563 24.1425 42 24.1425C49.0437 24.1425 54.774 29.8729 54.774 36.9165C54.774 43.9602 49.0437 49.6904 42 49.6904ZM51.195 34.7868C51.1082 34.5197 50.8669 34.3329 50.5866 34.3157L44.7709 33.9605L42.6361 28.5393C42.5331 28.2779 42.2809 28.1062 42 28.1062C41.7191 28.1062 41.4669 28.2779 41.3639 28.5393L39.2291 33.9605L33.4134 34.3157C33.1331 34.3328 32.8917 34.5196 32.805 34.7868C32.7183 35.054 32.8035 35.347 33.0203 35.5256L37.5165 39.2312L36.0572 44.872C35.9868 45.1438 36.0899 45.4312 36.3172 45.5963C36.5444 45.7614 36.8496 45.7706 37.0863 45.6197L42 42.4886L46.9137 45.6196C47.026 45.6912 47.1536 45.7268 47.2811 45.7268C47.4223 45.7268 47.5634 45.683 47.6828 45.5962C47.9101 45.4312 48.0132 45.1438 47.9428 44.8719L46.4835 39.2312L50.9797 35.5255C51.1965 35.347 51.2818 35.0539 51.195 34.7868ZM45.2777 38.4532C45.0727 38.6222 44.9842 38.8947 45.0507 39.152L46.1844 43.5339L42.3674 41.1016C42.2554 41.0302 42.1277 40.9944 42 40.9944C41.8723 40.9944 41.7447 41.0302 41.6326 41.1016L37.8155 43.5339L38.9492 39.152C39.0157 38.8947 38.9271 38.6222 38.7222 38.4532L35.2293 35.5745L39.7472 35.2986C40.0124 35.2824 40.2442 35.1141 40.3416 34.8668L42 30.6555L43.6583 34.8669C43.7557 35.1142 43.9875 35.2825 44.2527 35.2987L48.7706 35.5746L45.2777 38.4532Z" fill="#2F2F2F"/>
</svg>
