<svg width="23" height="22" viewBox="0 0 23 22" fill="none" xmlns="http://www.w3.org/2000/svg">
<path d="M22.1261 21.1286L22.125 21.1266L22.1261 21.1286ZM22.1261 21.1286L22.1263 21.1288L22.1263 21.1288M22.1261 21.1286L22.1263 21.1288M22.1263 21.1288L22.1266 21.1293L22.1263 21.1289L22.1263 21.1288ZM22.126 21.1268L22.1255 21.1264L22.126 21.1268ZM22.126 21.1268L22.126 21.1261L22.1258 21.1242L22.126 21.1261L22.126 21.1268ZM22.126 21.1268L22.1271 21.1275L22.126 21.1268ZM22.1224 21.1221L22.1221 21.1216L22.1224 21.1221ZM22.1224 21.1221L22.1208 21.1224L22.1224 21.1221ZM22.1224 21.1221L22.1232 21.1236L22.1224 21.1221ZM22.1224 21.1221L22.1254 21.1215L22.1224 21.1221ZM0.873964 21.1268L0.874555 21.1264L0.873964 21.1268ZM0.873964 21.1268L0.872941 21.1276L0.873964 21.1268ZM0.873862 21.1286L0.875034 21.1266L0.873862 21.1286ZM0.873862 21.1286L0.873732 21.1288L0.873735 21.1288L0.873862 21.1286ZM12.9664 14.8921C13.1075 14.8623 13.2475 14.8282 13.3864 14.7899L13.1712 14.9184C13.103 14.9091 13.0347 14.9003 12.9664 14.8921ZM9.61365 14.7899C9.75238 14.8282 9.89241 14.8623 10.0335 14.8922C9.96521 14.9003 9.89698 14.9091 9.82884 14.9184L9.61365 14.7899Z" stroke="#808080" stroke-width="2"/>
</svg>
